# xmcd
#
# Track frame offsets:
#	150
#	13217
#	21327
#	28804
#	42488
#	52950
#	63776
#	75222
#	82965
#	92749
#	103615
#
# Disc length: 1554 seconds
#
# Revision: 1
# Processed by: cddbd v1.5.2PL0 Copyright (c) Steve Scherf et al.
# Submitted via: EasyCDDAExtractor 7.0.3.1
#
DISCID=7c06100b
DTITLE=Dave Foley - Holey Moley It's Dave Foley
DYEAR=1999
DGENRE=Country
TTITLE0=Change Your Mind
TTITLE1=You Gotta Be My Baby
TTITLE2=Guess Things Happen That Way
TTITLE3=Fair Weather Lover
TTITLE4=Long Gone Lonesome Blues 
TTITLE5=Tennessee Saturday Night 
TTITLE6=Watching You Walk By
TTITLE7=Waiting For A Train
TTITLE8=Why Baby Why 
TTITLE9=My Baby's Gone
TTITLE10=Change Your Mind Again
EXTD=
EXTT0=
EXTT1=
EXTT2=
EXTT3=
EXTT4=
EXTT5=
EXTT6=
EXTT7=
EXTT8=
EXTT9=
EXTT10=
PLAYORDER=
